<svg width="24" height="19" viewBox="0 0 24 19" fill="none" xmlns="http://www.w3.org/2000/svg">
<path fill-rule="evenodd" clip-rule="evenodd" d="M3 2.92578C2.44772 2.92578 2 3.36078 2 3.89739V15.5568C2 16.0934 2.44772 16.5284 3 16.5284H21C21.5523 16.5284 22 16.0934 22 15.5568V3.89739C22 3.36078 21.5523 2.92578 21 2.92578H3ZM0 3.89739C0 2.28757 1.34315 0.982544 3 0.982544H21C22.6569 0.982544 24 2.28757 24 3.89739V15.5568C24 17.1666 22.6569 18.4716 21 18.4716H3C1.34315 18.4716 0 17.1666 0 15.5568V3.89739Z" fill="#3F8DCB"/>
<path fill-rule="evenodd" clip-rule="evenodd" d="M0 7.78387C0 7.24726 0.447715 6.81226 1 6.81226H23C23.5523 6.81226 24 7.24726 24 7.78387C24 8.32048 23.5523 8.75549 23 8.75549H1C0.447715 8.75549 0 8.32048 0 7.78387Z" fill="#3F8DCB"/>
</svg>
