<svg width="45" height="45" viewBox="0 0 45 45" fill="none" xmlns="http://www.w3.org/2000/svg">
<path fill-rule="evenodd" clip-rule="evenodd" d="M1.75736 6.75736C2.88258 5.63214 4.4087 5 6 5H20C21.1046 5 22 5.89543 22 7C22 8.10457 21.1046 9 20 9H6C5.46957 9 4.96086 9.21071 4.58579 9.58579C4.21071 9.96086 4 10.4696 4 11V39C4 39.5304 4.21071 40.0391 4.58579 40.4142C4.96086 40.7893 5.46957 41 6 41H34C34.5304 41 35.0391 40.7893 35.4142 40.4142C35.7893 40.0391 36 39.5304 36 39V25C36 23.8954 36.8954 23 38 23C39.1046 23 40 23.8954 40 25V39C40 40.5913 39.3679 42.1174 38.2426 43.2426C37.1174 44.3679 35.5913 45 34 45H6C4.4087 45 2.88258 44.3679 1.75736 43.2426C0.632141 42.1174 0 40.5913 0 39V11C0 9.4087 0.632141 7.88258 1.75736 6.75736Z" fill="#3F8DCB"/>
<path fill-rule="evenodd" clip-rule="evenodd" d="M38 4.75732C37.4052 4.75732 36.8348 4.9936 36.4142 5.41418L17.8059 24.0225L16.7487 28.2512L20.9775 27.194L39.5858 8.58575C40.0063 8.16517 40.2426 7.59475 40.2426 6.99996C40.2426 6.40518 40.0063 5.83476 39.5858 5.41418C39.1652 4.9936 38.5948 4.75732 38 4.75732ZM33.5858 2.58575C34.7565 1.41503 36.3443 0.757324 38 0.757324C39.6556 0.757324 41.2435 1.41503 42.4142 2.58575C43.5849 3.75647 44.2426 5.34431 44.2426 6.99996C44.2426 8.65562 43.5849 10.2435 42.4142 11.4142L23.4142 30.4142C23.1579 30.6705 22.8367 30.8523 22.4851 30.9403L14.4851 32.9403C13.8035 33.1106 13.0825 32.9109 12.5858 32.4142C12.089 31.9174 11.8893 31.1964 12.0597 30.5149L14.0597 22.5149C14.1476 22.1632 14.3295 21.8421 14.5858 21.5858L33.5858 2.58575Z" fill="#3F8DCB"/>
</svg>
