<svg width="48" height="48" viewBox="0 0 48 48" fill="none" xmlns="http://www.w3.org/2000/svg">
<path d="M31.2 48C24.7304 48 14.5565 45.8609 12.0522 44.087C11.4783 43.6696 11.1652 43.0435 11.1652 42.3652V21.9652C11.1652 21.3391 11.4783 20.713 11.9478 20.3478C12.1043 20.2435 15.7565 17.3739 19.5652 15.2348C24.313 12.6261 27.6 8.97391 28.3826 6.67826C29.3217 3.86087 30.6783 0 34.9565 0C36.9913 0 38.6609 1.14783 39.5478 3.13043C41.3217 7.2 39.4435 12.8348 36.313 17.2696C38.4 17.7391 41.0087 18.4174 42.5739 18.887C45.4435 19.7739 47.3217 21.8609 47.7391 24.4174C48.1043 27.0261 46.8 29.687 44.0348 31.7217C42 37.2 38.5043 45.8609 35.9478 47.2696C34.9565 47.7913 33.2348 48 31.2 48ZM15.3391 41.113C19.3043 42.7826 31.513 44.5043 33.8087 43.6174C35.0087 42.5217 38.0869 35.5304 40.2261 29.6348C40.3826 29.2174 40.6435 28.8522 41.0087 28.5913C42.7304 27.4435 43.6174 26.087 43.4609 24.9391C43.3043 24 42.4696 23.2174 41.2174 22.8C38.6087 21.9652 32.1391 20.5565 32.0348 20.5565C31.3043 20.4 30.7304 19.8783 30.4696 19.1478C30.2087 18.4174 30.4174 17.6348 30.9391 17.113C35.6348 12.0522 36.4696 6.88696 35.5826 4.8C35.3739 4.17391 35.113 4.17391 34.9565 4.17391C33.913 4.17391 33.4435 4.90435 32.3478 8.03478C31.0956 11.687 26.7652 16.0696 21.6 18.887C19.0956 20.2435 16.5913 22.0696 15.3391 23.0087V41.113ZM7.09565 42.5739V21.7043C7.09565 19.8261 5.5826 18.313 3.70434 18.313C1.82608 18.313 0.260864 19.8261 0.260864 21.7043V42.5217C0.260864 44.4 1.77391 45.913 3.65217 45.913C5.53043 45.913 7.09565 44.4 7.09565 42.5739Z" fill="#428ECC"/>
</svg>
