<svg width="26" height="27" viewBox="0 0 26 27" fill="none" xmlns="http://www.w3.org/2000/svg">
<path d="M4.75877 25.1406C4.43062 25.1406 1.93481 25.1406 1.56285 25.1406C1.56285 24.7515 1.56285 22.1408 1.56285 21.7975C1.56285 21.3464 1.2127 20.9801 0.781424 20.9801C0.350149 20.9801 0 21.3464 0 21.7975V25.958C0 26.4091 0.350149 26.7754 0.781424 26.7754H4.75877C5.19004 26.7754 5.54019 26.4091 5.54019 25.958C5.54019 25.5068 5.19004 25.1406 4.75877 25.1406Z" fill="#3F8DCB"/>
<path d="M24.2978 0.541626H20.3205C19.8892 0.541626 19.5391 0.907895 19.5391 1.35903C19.5391 1.81016 19.8892 2.17642 20.3205 2.17642H23.5164V5.51948C23.5164 5.97061 23.8666 6.33688 24.2978 6.33688C24.7291 6.33688 25.0793 5.97061 25.0793 5.51948V1.35903C25.0793 0.907895 24.7291 0.541626 24.2978 0.541626Z" fill="#3F8DCB"/>
<path d="M24.2978 20.98C23.8666 20.98 23.5164 21.3462 23.5164 21.7974V25.1404C23.1446 25.1404 20.6486 25.1404 20.3205 25.1404C19.8892 25.1404 19.5391 25.5067 19.5391 25.9578C19.5391 26.409 19.8892 26.7752 20.3205 26.7752H24.2978C24.7291 26.7752 25.0793 26.409 25.0793 25.9578V21.7974C25.0793 21.3462 24.7291 20.98 24.2978 20.98Z" fill="#3F8DCB"/>
<path d="M0.781424 6.33688C1.2127 6.33688 1.56285 5.97061 1.56285 5.51948C1.56285 5.17623 1.56285 2.56551 1.56285 2.17642H4.75877C5.19004 2.17642 5.54019 1.81016 5.54019 1.35903C5.54019 0.907895 5.19004 0.541626 4.75877 0.541626H0.781424C0.350149 0.541626 0 0.907895 0 1.35903V5.51948C0 5.97061 0.350149 6.33688 0.781424 6.33688Z" fill="#3F8DCB"/>
<path d="M2.64355 4.12384V8.63595C2.64355 9.08708 2.99351 9.45335 3.42479 9.45335H7.73831C8.16959 9.45335 8.51974 9.08708 8.51974 8.63595V4.12384C8.51974 3.67271 8.16959 3.30664 7.73831 3.30664H3.42479C2.99351 3.30664 2.64355 3.67271 2.64355 4.12384ZM6.95689 7.81855H4.20621V4.94124H6.95689V7.81855Z" fill="#3F8DCB"/>
<path d="M7.73831 17.7079H3.42479C2.99351 17.7079 2.64355 18.0736 2.64355 18.5253V23.0366C2.64355 23.4883 2.99351 23.854 3.42479 23.854H7.73831C8.16959 23.854 8.51974 23.4883 8.51974 23.0366V18.5253C8.51974 18.0736 8.16959 17.7079 7.73831 17.7079ZM6.95689 22.2192H4.20621V19.3427H6.95689V22.2192Z" fill="#3F8DCB"/>
<path d="M17.0929 9.45335H21.4065C21.8377 9.45335 22.1879 9.08708 22.1879 8.63595V4.12384C22.1879 3.67271 21.8377 3.30664 21.4065 3.30664H17.0929C16.6611 3.30664 16.3115 3.67271 16.3115 4.12384V8.63595C16.3115 9.08708 16.6611 9.45335 17.0929 9.45335ZM17.8744 4.94124H20.625V7.81855H17.8744V4.94124Z" fill="#3F8DCB"/>
<path d="M2.78418 11.5651C2.78418 12.0164 3.13414 12.3825 3.5656 12.3825H10.8644C11.2958 12.3825 11.6458 12.0164 11.6458 11.5651V6.91188C11.6458 6.46035 11.2958 6.09448 10.8644 6.09448C10.4327 6.09448 10.083 6.46035 10.083 6.91188V10.7477H3.5656C3.13414 10.7477 2.78418 11.1138 2.78418 11.5651Z" fill="#3F8DCB"/>
<path d="M13.2521 11.638C13.2694 12.4684 13.2694 13.2318 13.2694 14.04C13.2694 14.4913 13.6191 14.8574 14.0508 14.8574H18.9475C19.3792 14.8574 19.7289 14.4913 19.7289 14.04C19.7289 13.5884 19.3792 13.2226 18.9475 13.2226H14.8314C14.8301 12.6926 14.8261 12.1644 14.8146 11.6026C14.8052 11.1513 14.4457 10.7928 14.0165 10.8032C13.5851 10.813 13.2428 11.1867 13.2521 11.638Z" fill="#3F8DCB"/>
<path d="M10.8646 4.94153H10.8658C11.6554 4.94013 12.4699 4.93993 13.2686 4.93973C13.2674 5.51455 13.2636 6.08277 13.2519 6.67801C13.2431 7.12934 13.5856 7.50281 14.0171 7.51202C14.0225 7.51222 14.028 7.51222 14.0334 7.51222C14.4576 7.51222 14.8056 7.15716 14.8144 6.71163C14.8318 5.81998 14.8318 4.99537 14.8318 4.12233C14.8318 3.671 14.4821 3.30493 14.0504 3.30493C13.0082 3.30493 11.9137 3.30493 10.8633 3.30673C10.4318 3.30733 10.0824 3.674 10.083 4.12533C10.0838 4.57626 10.4335 4.94153 10.8646 4.94153Z" fill="#3F8DCB"/>
<path d="M17.0929 11.988H21.4063C21.8377 11.988 22.1877 11.6221 22.1877 11.1706C22.1877 10.7193 21.8377 10.3534 21.4063 10.3534H17.0929C16.6615 10.3534 16.3115 10.7193 16.3115 11.1706C16.3115 11.6221 16.6615 11.988 17.0929 11.988Z" fill="#3F8DCB"/>
<path d="M18.6068 19.3234C17.5682 19.3252 16.5298 19.3268 15.4912 19.3282C15.0597 19.3288 14.7104 19.6952 14.7109 20.1468C14.7115 20.5977 15.0613 20.963 15.4924 20.963C15.5444 20.963 17.2406 20.9606 18.6094 20.9582C19.0409 20.9574 19.3901 20.5909 19.3895 20.1394C19.3888 19.6884 19.039 19.3234 18.6081 19.3234C18.6075 19.3234 18.6072 19.3234 18.6068 19.3234Z" fill="#3F8DCB"/>
<path d="M10.8723 14.476L9.42233 14.4766C8.99086 14.4768 8.64129 14.843 8.64148 15.2944C8.64167 15.7445 8.9901 16.1114 9.42329 16.1114L10.0912 16.111V23.0368C10.0912 23.4884 10.441 23.8542 10.8727 23.8542C11.3041 23.8542 11.6541 23.4884 11.6541 23.0368V15.2934C11.6541 14.8428 11.3047 14.476 10.8723 14.476Z" fill="#3F8DCB"/>
<path d="M3.5656 14.4944C3.13414 14.4944 2.78418 14.8603 2.78418 15.3118C2.78418 15.7631 3.13414 16.1292 3.5656 16.1292H4.93386C5.36533 16.1292 5.71529 15.7631 5.71529 15.3118C5.71529 14.8603 5.36533 14.4944 4.93386 14.4944H3.5656Z" fill="#3F8DCB"/>
<path d="M22.2954 17.1552C22.2954 16.7038 21.9454 16.3378 21.5139 16.3378H14.0334C13.6019 16.3378 13.252 16.7038 13.252 17.1552C13.252 17.6065 13.6019 17.9726 14.0334 17.9726H21.5139C21.9454 17.9726 22.2954 17.6067 22.2954 17.1552Z" fill="#3F8DCB"/>
<path d="M7.95933 15.2934C7.95933 15.7447 7.60957 16.1108 7.17791 16.1108C6.74644 16.1108 6.39648 15.7447 6.39648 15.2934C6.39648 14.8418 6.74644 14.476 7.17791 14.476C7.60957 14.476 7.95933 14.8418 7.95933 15.2934Z" fill="#3F8DCB"/>
<path d="M5.58135 7.1973C6.01263 7.1973 6.36278 6.83103 6.36278 6.3799C6.36278 5.92877 6.01263 5.5625 5.58135 5.5625C5.15008 5.5625 4.79993 5.92877 4.79993 6.3799C4.79993 6.83103 5.15008 7.1973 5.58135 7.1973Z" fill="#3F8DCB"/>
<path d="M19.2502 5.5625C18.8183 5.5625 18.4688 5.92877 18.4688 6.3799C18.4688 6.83103 18.8183 7.1973 19.2502 7.1973C19.6815 7.1973 20.0316 6.83103 20.0316 6.3799C20.0316 5.92877 19.6815 5.5625 19.2502 5.5625Z" fill="#3F8DCB"/>
<path d="M5.58135 21.5979C6.01263 21.5979 6.36278 21.2324 6.36278 20.7807C6.36278 20.3293 6.01263 19.9633 5.58135 19.9633C5.15008 19.9633 4.79993 20.3293 4.79993 20.7807C4.79993 21.2324 5.15008 21.5979 5.58135 21.5979Z" fill="#3F8DCB"/>
<path d="M22.1877 14.0399C22.1877 14.4913 21.8378 14.8573 21.4063 14.8573C20.9746 14.8573 20.6249 14.4913 20.6249 14.0399C20.6249 13.5884 20.9746 13.2225 21.4063 13.2225C21.8378 13.2225 22.1877 13.5884 22.1877 14.0399Z" fill="#3F8DCB"/>
<path d="M14.76 9.0381C14.76 9.48943 14.4103 9.8555 13.9786 9.8555C13.5472 9.8555 13.1974 9.48943 13.1974 9.0381C13.1974 8.58657 13.5472 8.2207 13.9786 8.2207C14.4103 8.2207 14.76 8.58657 14.76 9.0381Z" fill="#3F8DCB"/>
<path d="M14.1205 20.1431C14.1205 20.5946 13.7707 20.9605 13.339 20.9605C12.9076 20.9605 12.5576 20.5946 12.5576 20.1431C12.5576 19.6918 12.9076 19.3257 13.339 19.3257C13.7707 19.3257 14.1205 19.6918 14.1205 20.1431Z" fill="#3F8DCB"/>
<path d="M22.2944 23.0368V20.5221C22.2944 20.0708 21.9445 19.7047 21.513 19.7047C21.0813 19.7047 20.7316 20.0708 20.7316 20.5221V22.2194H15.4922C15.0607 22.2194 14.7109 22.5854 14.7109 23.0368C14.7109 23.4883 15.0607 23.8542 15.4922 23.8542H21.513C21.9445 23.8542 22.2944 23.4883 22.2944 23.0368Z" fill="#3F8DCB"/>
</svg>
