<svg width="36" height="44" viewBox="0 0 36 44" fill="none" xmlns="http://www.w3.org/2000/svg">
<path fill-rule="evenodd" clip-rule="evenodd" d="M17.2978 0.127342C17.7505 -0.0424472 18.2495 -0.0424472 18.7022 0.127342L34.7022 6.12734C35.4829 6.42007 36 7.16631 36 8V22C36 28.8929 31.4365 34.4006 27.317 38.0051C25.2152 39.8442 23.1229 41.2817 21.56 42.2585C20.7765 42.7482 20.1206 43.1255 19.6561 43.3826C19.4237 43.5112 19.2389 43.61 19.1094 43.678C19.0446 43.712 18.9937 43.7383 18.9575 43.7568L18.9145 43.7787L18.9016 43.7853L18.8973 43.7874C18.8966 43.7878 18.8944 43.7888 18 42C17.1056 43.7888 17.105 43.7886 17.1043 43.7882L17.0984 43.7853L17.0855 43.7787L17.0425 43.7568C17.0063 43.7383 16.9554 43.712 16.8906 43.678C16.7611 43.61 16.5763 43.5112 16.3439 43.3826C15.8794 43.1255 15.2235 42.7482 14.44 42.2585C12.8771 41.2817 10.7848 39.8442 8.68299 38.0051C4.56349 34.4006 0 28.8929 0 22V8C0 7.16631 0.517146 6.42007 1.29775 6.12734L17.2978 0.127342ZM18 42L17.1043 43.7882C17.6674 44.0698 18.3314 44.0704 18.8944 43.7888L18 42ZM18 39.7255C18.3833 39.5083 18.8734 39.2206 19.44 38.8665C20.8771 37.9683 22.7848 36.6558 24.683 34.9948C28.5635 31.5994 32 27.1071 32 22V9.386L18 4.136L4 9.386V22C4 27.1071 7.43651 31.5994 11.317 34.9948C13.2152 36.6558 15.1229 37.9683 16.56 38.8665C17.1266 39.2206 17.6167 39.5083 18 39.7255Z" fill="#3F8DCB"/>
</svg>
