<svg width="46" height="44" viewBox="0 0 46 44" fill="none" xmlns="http://www.w3.org/2000/svg">
<path d="M35.887 43.913C35.4696 43.913 35.1044 43.8087 34.7391 43.6L23 35.9304L11.2609 43.6C10.5304 44.0695 9.59131 44.0174 8.91305 43.5478C8.23479 43.0261 7.92174 42.1391 8.13044 41.3043L11.8348 28.2608L0.773917 18.9217C0.14783 18.4 -0.11304 17.513 0.14783 16.6782C0.408699 15.8434 1.13913 15.3217 1.97392 15.2174L15.1739 14.2782L21.1217 1.28691C21.4348 0.556479 22.1652 0.0869141 23 0.0869141C23.8348 0.0869141 24.5652 0.556479 24.8783 1.28691L30.8261 14.2782L44.0261 15.2174C44.8609 15.2695 45.5913 15.8434 45.8522 16.6782C46.113 17.4608 45.8522 18.3478 45.2261 18.9217L34.2174 28.2087L37.9217 41.2521C38.1826 42.0869 37.8696 42.9739 37.1391 43.4956C36.7739 43.7565 36.3565 43.913 35.887 43.913ZM23 31.3913C23.4174 31.3913 23.7826 31.4956 24.1478 31.7043L32.3913 37.0782L29.8348 28.0521C29.6261 27.2695 29.887 26.4347 30.513 25.913L38.6 19.0782L29.313 18.3478C28.5304 18.2956 27.9044 17.826 27.5391 17.1478L23 7.18257L18.4609 17.1478C18.1478 17.826 17.4696 18.2956 16.687 18.3478L7.4 19.026L15.487 25.8608C16.113 26.3826 16.3739 27.2174 16.1652 28L13.6087 37.0782L21.8522 31.7565C22.2174 31.4956 22.5826 31.3913 23 31.3913Z" fill="#428ECC"/>
</svg>
