<svg width="27" height="28" viewBox="0 0 27 28" fill="none" xmlns="http://www.w3.org/2000/svg">
<path d="M18.0737 11.4321L18.0737 11.4321C17.8832 11.6315 17.7383 11.8657 17.6445 12.1209C17.4442 12.0363 17.2329 11.989 17.0203 11.9784V3.02771C17.0203 1.76463 16.0366 0.725732 14.8131 0.725732H3.05727C1.83387 0.725732 0.850191 1.76464 0.850191 3.02771V11.6869C0.850191 12.046 1.13026 12.3492 1.48983 12.3492C1.84955 12.3492 2.12965 12.046 2.12965 11.6869V5.32969H15.7407V12.4062C15.6848 12.4524 15.6304 12.5024 15.5783 12.5569C15.2353 12.9157 15.0522 13.3777 15.0273 13.8458C14.5773 13.8737 14.1347 14.067 13.7929 14.4245C13.6395 14.5849 13.518 14.7663 13.4283 14.9595L10.757 12.165L10.6486 12.2687L10.757 12.165C10.3984 11.7899 9.9195 11.5819 9.40949 11.5819C8.89945 11.5819 8.42054 11.7902 8.06199 12.165L8.06196 12.165C7.7036 12.5399 7.50722 13.0376 7.50722 13.5648C7.50722 14.0922 7.7036 14.5898 8.06196 14.9646L14.2073 21.3931L13.5648 21.23C12.5414 20.9701 11.4977 21.6144 11.211 22.6552H2.12965V16.298C2.12965 15.9389 1.84955 15.6357 1.48983 15.6357C1.1301 15.6357 0.85 15.9389 0.85 16.298V24.9572C0.85 26.2203 1.83369 27.2592 3.05727 27.2592H14.8129C15.4059 27.2592 15.9641 27.0113 16.3732 26.5844L17.1273 26.8596L17.1274 26.8596C17.8565 27.1254 18.6184 27.2594 19.3824 27.2594C19.8943 27.2594 20.4072 27.1993 20.9117 27.0785C22.1693 26.7774 23.3153 26.114 24.2262 25.1613L24.1178 25.0577L24.2263 25.1613C26.8925 22.3725 26.8925 17.8375 24.2263 15.0487L20.7688 11.4321C20.4102 11.057 19.9313 10.849 19.4213 10.849C18.9112 10.849 18.4323 11.057 18.0737 11.4321ZM12.4508 25.1539L12.4509 25.154L14.5908 25.9344H3.05727C2.5521 25.9344 2.12965 25.5024 2.12965 24.9572V23.98H11.2781C11.4824 24.5102 11.8965 24.9516 12.4508 25.1539ZM23.3168 24.2293L23.3168 24.2293C21.8161 25.7992 19.5532 26.3395 17.5528 25.6101L12.8763 23.9044L12.8762 23.9044C12.542 23.7826 12.3437 23.4007 12.4383 23.0314C12.5211 22.7085 12.8041 22.4967 13.1029 22.4967C13.1545 22.4967 13.2072 22.5031 13.2601 22.5165L16.1043 23.2386C16.1044 23.2386 16.1044 23.2386 16.1044 23.2386C16.3875 23.3106 16.6776 23.1751 16.8161 22.917L16.8162 22.9169C16.9537 22.6606 16.9124 22.3394 16.7117 22.1293L8.97146 14.0328C8.85279 13.9087 8.78668 13.7431 8.78668 13.565C8.78668 13.3867 8.8528 13.2212 8.97146 13.0971C9.08989 12.9732 9.24506 12.9066 9.40949 12.9066C9.57372 12.9066 9.72889 12.9732 9.84734 13.0971L9.95576 12.9934L9.84734 13.0971L13.789 17.22L13.7919 17.2232L13.7927 17.2241L13.7927 17.2241L13.7927 17.2241L13.7928 17.2241L13.7928 17.2241L13.7928 17.2242L13.7928 17.2242L13.7928 17.2242L13.7928 17.2242L13.7928 17.2242L13.7928 17.2242L13.7928 17.2242L13.7929 17.2242L13.7929 17.2242L13.7929 17.2243L13.7929 17.2243L13.7929 17.2243L13.7929 17.2243L13.793 17.2244L13.7931 17.2245L16.2187 19.7618C16.3431 19.8918 16.5077 19.9582 16.6734 19.9582C16.839 19.9582 17.0039 19.892 17.1281 19.7618C17.375 19.5038 17.3749 19.088 17.1282 18.8299L14.7024 16.2923L14.6932 16.2826C14.4566 16.0246 14.4597 15.6106 14.7024 15.3565C14.9445 15.1033 15.336 15.1033 15.5783 15.3566L18.1302 18.0261L18.1303 18.0262C18.2545 18.1559 18.4191 18.2225 18.5851 18.2225C18.7509 18.2225 18.9155 18.1559 19.0397 18.0262L19.0399 18.026C19.2864 17.7679 19.2864 17.3522 19.0399 17.0941L19.0398 17.094L16.4878 14.4247C16.242 14.1675 16.2421 13.746 16.4878 13.489C16.7301 13.2356 17.1216 13.2356 17.3636 13.4889L17.3637 13.489L18.0737 14.2317L18.1821 14.1281L18.0737 14.2317L19.9391 16.1827C20.0634 16.3128 20.2281 16.3792 20.3938 16.3792C20.5594 16.3792 20.7243 16.3129 20.8485 16.1828C21.0954 15.9248 21.0953 15.509 20.8486 15.2509L18.9834 13.2997L18.9834 13.2996C18.7375 13.0426 18.7375 12.6212 18.9834 12.3639L18.9835 12.3639C19.1017 12.2401 19.2568 12.1735 19.4213 12.1735C19.5857 12.1735 19.7408 12.2401 19.859 12.3639L19.8591 12.3639L23.3168 15.9808C25.49 18.2541 25.49 21.9562 23.3168 24.2293ZM2.12965 4.00494V3.02771C2.12965 2.48246 2.5521 2.05048 3.05727 2.05048H14.8129C15.318 2.05048 15.7405 2.48246 15.7405 3.02771V4.00494H2.12965Z" fill="#3F8DCB" stroke="#3F8DCB" stroke-width="0.3"/>
</svg>
